<svg xmlns="http://www.w3.org/2000/svg" viewBox="0 0 600 360" width="600" height="360">
<rect width="600" height="360" rx="18" fill="#1c1a26"/>
<rect x="30" y="30" width="8" height="26" fill="#ffd23f"/>
<rect x="26" y="34" width="16" height="18" fill="#ffd23f"/>
<rect x="31" y="36" width="4" height="14" fill="#c79a00"/>
<text x="56" y="47" font-family="'Courier New', ui-monospace, monospace" font-weight="700" font-size="22" fill="#f0eef5" letter-spacing="2">COIN<tspan fill="#ffd23f">-</tspan>OP</text>
<text x="57" y="64" font-family="system-ui, sans-serif" font-size="11" fill="#9a96ad">vox2 · project expenditure</text>
<rect x="30" y="84" width="128" height="62" fill="#232031" stroke="#34304a" stroke-width="2"/>
<text x="40" y="102" font-family="'Courier New', ui-monospace, monospace" font-weight="700" font-size="9" fill="#9a96ad" letter-spacing="1">CREDITS SPENT</text>
<text x="40" y="130" font-family="'Courier New', ui-monospace, monospace" font-weight="700" font-size="20" fill="#ffd23f">$XXX.XX</text>
<rect x="168" y="84" width="128" height="62" fill="#232031" stroke="#34304a" stroke-width="2"/>
<text x="178" y="102" font-family="'Courier New', ui-monospace, monospace" font-weight="700" font-size="9" fill="#9a96ad" letter-spacing="1">TOKENS</text>
<text x="178" y="130" font-family="'Courier New', ui-monospace, monospace" font-weight="700" font-size="20" fill="#f0eef5">XXX.XM</text>
<rect x="305" y="84" width="128" height="62" fill="#232031" stroke="#34304a" stroke-width="2"/>
<text x="315" y="102" font-family="'Courier New', ui-monospace, monospace" font-weight="700" font-size="9" fill="#9a96ad" letter-spacing="1">DAYS</text>
<text x="315" y="130" font-family="'Courier New', ui-monospace, monospace" font-weight="700" font-size="20" fill="#f0eef5">3</text>
<rect x="442" y="84" width="128" height="62" fill="#232031" stroke="#34304a" stroke-width="2"/>
<text x="452" y="102" font-family="'Courier New', ui-monospace, monospace" font-weight="700" font-size="9" fill="#9a96ad" letter-spacing="1">TURNS</text>
<text x="452" y="130" font-family="'Courier New', ui-monospace, monospace" font-weight="700" font-size="20" fill="#f0eef5">XXX</text>
<rect x="30" y="160" width="540" height="172" fill="#232031" stroke="#34304a" stroke-width="2"/>
<text x="44" y="182" font-family="'Courier New', ui-monospace, monospace" font-weight="700" font-size="11" fill="#f0eef5">spend by day</text>
<text x="556" y="182" font-family="'Courier New', ui-monospace, monospace" font-weight="700" font-size="9" fill="#9a96ad" text-anchor="end">mock data</text>
<rect x="137" y="307" width="9" height="9" fill="#ff4f8b"/>
<rect x="148" y="307" width="9" height="9" fill="#ff4f8b"/>
<rect x="159" y="307" width="9" height="9" fill="#ff4f8b"/>
<rect x="170" y="307" width="9" height="9" fill="#3fc8f0"/>
<rect x="181" y="307" width="9" height="9" fill="#3fc8f0"/>
<rect x="192" y="307" width="9" height="9" fill="#3fc8f0"/>
<rect x="137" y="296" width="9" height="9" fill="#3fc8f0"/>
<rect x="148" y="296" width="9" height="9" fill="#3fc8f0"/>
<rect x="159" y="296" width="9" height="9" fill="#3fc8f0"/>
<rect x="170" y="296" width="9" height="9" fill="#9b6cf0"/>
<rect x="181" y="296" width="9" height="9" fill="#9b6cf0"/>
<rect x="192" y="296" width="9" height="9" fill="#9b6cf0"/>
<rect x="137" y="285" width="9" height="9" fill="#9b6cf0"/>
<rect x="148" y="285" width="9" height="9" fill="#9b6cf0"/>
<rect x="159" y="285" width="9" height="9" fill="#9b6cf0"/>
<rect x="170" y="285" width="9" height="9" fill="#3ed27a"/>
<rect x="181" y="285" width="9" height="9" fill="#3ed27a"/>
<rect x="192" y="285" width="9" height="9" fill="#3ed27a"/>
<rect x="137" y="274" width="9" height="9" fill="#3ed27a"/>
<rect x="148" y="274" width="9" height="9" fill="#3ed27a"/>
<rect x="159" y="274" width="9" height="9" fill="#ffad1f"/>
<rect x="170" y="274" width="9" height="9" fill="#ffad1f"/>
<rect x="181" y="274" width="9" height="9" fill="#ffad1f"/>
<rect x="192" y="274" width="9" height="9" fill="#ffad1f"/>
<rect x="137" y="263" width="9" height="9" fill="#ffad1f"/>
<rect x="148" y="263" width="9" height="9" fill="#ecebf2"/>
<rect x="159" y="263" width="9" height="9" fill="#ecebf2"/>
<rect x="170" y="263" width="9" height="9" fill="#ecebf2"/>
<text x="170" y="248" font-family="'Courier New', ui-monospace, monospace" font-weight="700" font-size="9" fill="#f0eef5" text-anchor="middle">$XX.XX</text>
<rect x="245" y="307" width="9" height="9" fill="#3fc8f0"/>
<rect x="256" y="307" width="9" height="9" fill="#ff4f8b"/>
<rect x="267" y="307" width="9" height="9" fill="#ff4f8b"/>
<rect x="278" y="307" width="9" height="9" fill="#ff4f8b"/>
<rect x="289" y="307" width="9" height="9" fill="#ff4f8b"/>
<rect x="300" y="307" width="9" height="9" fill="#ff4f8b"/>
<rect x="245" y="296" width="9" height="9" fill="#ff4f8b"/>
<rect x="256" y="296" width="9" height="9" fill="#ff4f8b"/>
<rect x="267" y="296" width="9" height="9" fill="#3fc8f0"/>
<rect x="278" y="296" width="9" height="9" fill="#3fc8f0"/>
<rect x="289" y="296" width="9" height="9" fill="#ff4f8b"/>
<rect x="300" y="296" width="9" height="9" fill="#3fc8f0"/>
<rect x="245" y="285" width="9" height="9" fill="#3fc8f0"/>
<rect x="256" y="285" width="9" height="9" fill="#3fc8f0"/>
<rect x="267" y="285" width="9" height="9" fill="#3fc8f0"/>
<rect x="278" y="285" width="9" height="9" fill="#3fc8f0"/>
<rect x="289" y="285" width="9" height="9" fill="#3fc8f0"/>
<rect x="300" y="285" width="9" height="9" fill="#3fc8f0"/>
<rect x="245" y="274" width="9" height="9" fill="#3fc8f0"/>
<rect x="256" y="274" width="9" height="9" fill="#3fc8f0"/>
<rect x="267" y="274" width="9" height="9" fill="#9b6cf0"/>
<rect x="278" y="274" width="9" height="9" fill="#3fc8f0"/>
<rect x="289" y="274" width="9" height="9" fill="#9b6cf0"/>
<rect x="300" y="274" width="9" height="9" fill="#3fc8f0"/>
<rect x="245" y="263" width="9" height="9" fill="#3fc8f0"/>
<rect x="256" y="263" width="9" height="9" fill="#3fc8f0"/>
<rect x="267" y="263" width="9" height="9" fill="#9b6cf0"/>
<rect x="278" y="263" width="9" height="9" fill="#3ed27a"/>
<rect x="289" y="263" width="9" height="9" fill="#9b6cf0"/>
<rect x="300" y="263" width="9" height="9" fill="#3ed27a"/>
<rect x="245" y="252" width="9" height="9" fill="#9b6cf0"/>
<rect x="256" y="252" width="9" height="9" fill="#9b6cf0"/>
<rect x="267" y="252" width="9" height="9" fill="#9b6cf0"/>
<rect x="278" y="252" width="9" height="9" fill="#3ed27a"/>
<rect x="289" y="252" width="9" height="9" fill="#9b6cf0"/>
<rect x="300" y="252" width="9" height="9" fill="#9b6cf0"/>
<rect x="245" y="241" width="9" height="9" fill="#9b6cf0"/>
<rect x="256" y="241" width="9" height="9" fill="#9b6cf0"/>
<rect x="267" y="241" width="9" height="9" fill="#9b6cf0"/>
<rect x="278" y="241" width="9" height="9" fill="#3ed27a"/>
<rect x="289" y="241" width="9" height="9" fill="#3ed27a"/>
<rect x="300" y="241" width="9" height="9" fill="#3ed27a"/>
<rect x="245" y="230" width="9" height="9" fill="#3ed27a"/>
<rect x="256" y="230" width="9" height="9" fill="#3ed27a"/>
<rect x="267" y="230" width="9" height="9" fill="#3ed27a"/>
<rect x="278" y="230" width="9" height="9" fill="#3ed27a"/>
<rect x="289" y="230" width="9" height="9" fill="#ffad1f"/>
<rect x="300" y="230" width="9" height="9" fill="#3ed27a"/>
<rect x="245" y="219" width="9" height="9" fill="#3ed27a"/>
<rect x="256" y="219" width="9" height="9" fill="#3ed27a"/>
<rect x="267" y="219" width="9" height="9" fill="#3ed27a"/>
<rect x="278" y="219" width="9" height="9" fill="#3ed27a"/>
<rect x="289" y="219" width="9" height="9" fill="#ffad1f"/>
<rect x="300" y="219" width="9" height="9" fill="#ffad1f"/>
<rect x="245" y="208" width="9" height="9" fill="#ffad1f"/>
<rect x="256" y="208" width="9" height="9" fill="#ffad1f"/>
<rect x="267" y="208" width="9" height="9" fill="#ffad1f"/>
<rect x="278" y="208" width="9" height="9" fill="#ffad1f"/>
<rect x="289" y="208" width="9" height="9" fill="#ecebf2"/>
<rect x="300" y="208" width="9" height="9" fill="#ffad1f"/>
<rect x="245" y="197" width="9" height="9" fill="#ffad1f"/>
<rect x="256" y="197" width="9" height="9" fill="#ffad1f"/>
<rect x="267" y="197" width="9" height="9" fill="#ecebf2"/>
<rect x="278" y="197" width="9" height="9" fill="#ffad1f"/>
<rect x="289" y="197" width="9" height="9" fill="#ffad1f"/>
<rect x="300" y="197" width="9" height="9" fill="#ecebf2"/>
<text x="278" y="182" font-family="'Courier New', ui-monospace, monospace" font-weight="700" font-size="9" fill="#f0eef5" text-anchor="middle">$XX.XX</text>
<rect x="353" y="307" width="9" height="9" fill="#ff4f8b"/>
<rect x="364" y="307" width="9" height="9" fill="#ff4f8b"/>
<rect x="375" y="307" width="9" height="9" fill="#ff4f8b"/>
<rect x="386" y="307" width="9" height="9" fill="#ff4f8b"/>
<rect x="397" y="307" width="9" height="9" fill="#ff4f8b"/>
<rect x="408" y="307" width="9" height="9" fill="#ff4f8b"/>
<rect x="353" y="296" width="9" height="9" fill="#3fc8f0"/>
<rect x="364" y="296" width="9" height="9" fill="#3fc8f0"/>
<rect x="375" y="296" width="9" height="9" fill="#3fc8f0"/>
<rect x="386" y="296" width="9" height="9" fill="#3fc8f0"/>
<rect x="397" y="296" width="9" height="9" fill="#3fc8f0"/>
<rect x="408" y="296" width="9" height="9" fill="#3fc8f0"/>
<rect x="353" y="285" width="9" height="9" fill="#9b6cf0"/>
<rect x="364" y="285" width="9" height="9" fill="#3fc8f0"/>
<rect x="375" y="285" width="9" height="9" fill="#3ed27a"/>
<rect x="386" y="285" width="9" height="9" fill="#9b6cf0"/>
<rect x="397" y="285" width="9" height="9" fill="#9b6cf0"/>
<rect x="408" y="285" width="9" height="9" fill="#3ed27a"/>
<rect x="353" y="274" width="9" height="9" fill="#3ed27a"/>
<rect x="364" y="274" width="9" height="9" fill="#3ed27a"/>
<rect x="375" y="274" width="9" height="9" fill="#9b6cf0"/>
<rect x="386" y="274" width="9" height="9" fill="#3ed27a"/>
<rect x="397" y="274" width="9" height="9" fill="#ffad1f"/>
<rect x="408" y="274" width="9" height="9" fill="#ffad1f"/>
<rect x="353" y="263" width="9" height="9" fill="#3ed27a"/>
<rect x="364" y="263" width="9" height="9" fill="#ffad1f"/>
<rect x="375" y="263" width="9" height="9" fill="#3ed27a"/>
<rect x="386" y="263" width="9" height="9" fill="#ffad1f"/>
<rect x="397" y="263" width="9" height="9" fill="#ffad1f"/>
<rect x="408" y="263" width="9" height="9" fill="#ffad1f"/>
<rect x="353" y="252" width="9" height="9" fill="#ffad1f"/>
<rect x="364" y="252" width="9" height="9" fill="#ffad1f"/>
<rect x="375" y="252" width="9" height="9" fill="#ffad1f"/>
<rect x="386" y="252" width="9" height="9" fill="#ffad1f"/>
<rect x="397" y="252" width="9" height="9" fill="#ffad1f"/>
<rect x="408" y="252" width="9" height="9" fill="#ecebf2"/>
<rect x="353" y="241" width="9" height="9" fill="#ecebf2"/>
<rect x="364" y="241" width="9" height="9" fill="#ecebf2"/>
<rect x="386" y="241" width="9" height="9" fill="#ecebf2"/>
<rect x="397" y="241" width="9" height="9" fill="#ecebf2"/>
<text x="386" y="226" font-family="'Courier New', ui-monospace, monospace" font-weight="700" font-size="9" fill="#f0eef5" text-anchor="middle">$XX.XX</text>
<rect x="461" y="307" width="9" height="9" fill="#3fc8f0"/>
<rect x="472" y="307" width="9" height="9" fill="#3fc8f0"/>
<rect x="483" y="307" width="9" height="9" fill="#ff4f8b"/>
<rect x="494" y="307" width="9" height="9" fill="#3fc8f0"/>
<rect x="505" y="307" width="9" height="9" fill="#ff4f8b"/>
<rect x="516" y="307" width="9" height="9" fill="#ff4f8b"/>
<rect x="461" y="296" width="9" height="9" fill="#ff4f8b"/>
<rect x="472" y="296" width="9" height="9" fill="#ff4f8b"/>
<rect x="483" y="296" width="9" height="9" fill="#3fc8f0"/>
<rect x="494" y="296" width="9" height="9" fill="#ff4f8b"/>
<rect x="505" y="296" width="9" height="9" fill="#9b6cf0"/>
<rect x="516" y="296" width="9" height="9" fill="#3fc8f0"/>
<rect x="461" y="285" width="9" height="9" fill="#3fc8f0"/>
<rect x="472" y="285" width="9" height="9" fill="#3fc8f0"/>
<rect x="483" y="285" width="9" height="9" fill="#9b6cf0"/>
<rect x="494" y="285" width="9" height="9" fill="#9b6cf0"/>
<rect x="505" y="285" width="9" height="9" fill="#3fc8f0"/>
<rect x="516" y="285" width="9" height="9" fill="#3fc8f0"/>
<rect x="461" y="274" width="9" height="9" fill="#3fc8f0"/>
<rect x="472" y="274" width="9" height="9" fill="#3fc8f0"/>
<rect x="483" y="274" width="9" height="9" fill="#3ed27a"/>
<rect x="494" y="274" width="9" height="9" fill="#9b6cf0"/>
<rect x="505" y="274" width="9" height="9" fill="#9b6cf0"/>
<rect x="516" y="274" width="9" height="9" fill="#9b6cf0"/>
<rect x="461" y="263" width="9" height="9" fill="#9b6cf0"/>
<rect x="472" y="263" width="9" height="9" fill="#3ed27a"/>
<rect x="483" y="263" width="9" height="9" fill="#3ed27a"/>
<rect x="494" y="263" width="9" height="9" fill="#3ed27a"/>
<rect x="505" y="263" width="9" height="9" fill="#3ed27a"/>
<rect x="516" y="263" width="9" height="9" fill="#9b6cf0"/>
<rect x="461" y="252" width="9" height="9" fill="#3ed27a"/>
<rect x="472" y="252" width="9" height="9" fill="#3ed27a"/>
<rect x="483" y="252" width="9" height="9" fill="#3ed27a"/>
<rect x="494" y="252" width="9" height="9" fill="#3ed27a"/>
<rect x="505" y="252" width="9" height="9" fill="#3ed27a"/>
<rect x="516" y="252" width="9" height="9" fill="#3ed27a"/>
<rect x="461" y="241" width="9" height="9" fill="#ffad1f"/>
<rect x="472" y="241" width="9" height="9" fill="#ffad1f"/>
<rect x="483" y="241" width="9" height="9" fill="#3ed27a"/>
<rect x="494" y="241" width="9" height="9" fill="#3ed27a"/>
<rect x="505" y="241" width="9" height="9" fill="#ffad1f"/>
<rect x="516" y="241" width="9" height="9" fill="#ffad1f"/>
<rect x="461" y="230" width="9" height="9" fill="#ffad1f"/>
<rect x="472" y="230" width="9" height="9" fill="#ecebf2"/>
<rect x="483" y="230" width="9" height="9" fill="#ecebf2"/>
<rect x="494" y="230" width="9" height="9" fill="#ffad1f"/>
<rect x="505" y="230" width="9" height="9" fill="#ffad1f"/>
<rect x="516" y="230" width="9" height="9" fill="#ffad1f"/>
<rect x="461" y="219" width="9" height="9" fill="#ffad1f"/>
<rect x="472" y="219" width="9" height="9" fill="#ecebf2"/>
<rect x="483" y="219" width="9" height="9" fill="#ecebf2"/>
<rect x="494" y="219" width="9" height="9" fill="#ecebf2"/>
<rect x="505" y="219" width="9" height="9" fill="#ecebf2"/>
<rect x="516" y="219" width="9" height="9" fill="#ecebf2"/>
<rect x="461" y="208" width="9" height="9" fill="#ecebf2"/>
<rect x="472" y="208" width="9" height="9" fill="#ecebf2"/>
<rect x="505" y="208" width="9" height="9" fill="#ecebf2"/>
<text x="494" y="193" font-family="'Courier New', ui-monospace, monospace" font-weight="700" font-size="9" fill="#f0eef5" text-anchor="middle">$XX.XX</text>
<line x1="44" x2="556" y1="321" y2="321" stroke="#34304a" stroke-width="2"/>
</svg>